<mxfile host="app.diagrams.net" modified="2024-02-18T08:14:28.201Z" agent="Mozilla/5.0 (X11; Linux x86_64; rv:122.0) Gecko/20100101 Firefox/122.0" version="23.1.5" etag="U6ET3Q3O4LKIDSf-A8DH" type="github">
  <diagram name="Pagina-1" id="648oDNmNNRdL7MQFBCao">
    <mxGraphModel>
      <root>
        <mxCell id="0" />
        <mxCell id="1" parent="0" />
      </root>
    </mxGraphModel>
  </diagram>
</mxfile>
